<?xml version="1.0" standalone="no"?>
<svg xmlns="http://www.w3.org/2000/svg" xmlns:xlink="http://www.w3.org/1999/xlink" width="381pt" height="940pt" viewBox="0.00 0.00 380.79 940.00">
<g id="graph0" class="graph" transform="translate(10.395695123115232,843.6203036807768) scale(0.8502741600641958)" data-name="G">

<polygon fill="#2e3e56" stroke="none" points="-4,4 -4,-936 376.79,-936 376.79,4 -4,4" style=""/>
<g id="clust1" class="cluster" data-name="clusterGoogleAuthMapping">

<path fill="#445773" stroke="#445773" d="M20,-8C20,-8 352.79,-8 352.79,-8 358.79,-8 364.79,-14 364.79,-20 364.79,-20 364.79,-775 364.79,-775 364.79,-781 358.79,-787 352.79,-787 352.79,-787 20,-787 20,-787 14,-787 8,-781 8,-775 8,-775 8,-20 8,-20 8,-14 14,-8 20,-8" style=""/>
<text text-anchor="middle" x="186.39" y="-770.4" font-family="Times,serif" font-size="14.00" fill="#f0f0f0" style="">GoogleAuthMapping</text>
</g>
<g id="clust2" class="cluster" data-name="cluster_01">

<polygon fill="#2e3e56" stroke="black" points="17.87,-795 17.87,-924 314.26,-924 314.26,-795 17.87,-795" style=""/>
<text text-anchor="middle" x="166.06" y="-907.4" font-family="Times,serif" font-size="14.00" style="">Legend</text>
</g>
<!-- GoogleAuthMapping.addRMS -->
<g id="node1" class="node" pointer-events="visible" data-name="GoogleAuthMapping.addRMS">

<ellipse fill="#edad56" stroke="#edad56" stroke-width="3" cx="279.26" cy="-574" rx="45.26" ry="18" style=""/>
<text text-anchor="middle" x="279.26" y="-569.8" font-family="Times,serif" font-size="14.00" style="">addRMS</text>
</g>
<!-- GoogleAuthMapping.addManufacturer -->
<g id="node2" class="node" pointer-events="visible" data-name="GoogleAuthMapping.addManufacturer">

<ellipse fill="#edad56" stroke="#edad56" stroke-width="3" cx="279.26" cy="-628" rx="77.55" ry="18" style=""/>
<text text-anchor="middle" x="279.26" y="-623.8" font-family="Times,serif" font-size="14.00" style="">addManufacturer</text>
</g>
<!-- GoogleAuthMapping.addDistributor -->
<g id="node3" class="node" pointer-events="visible" data-name="GoogleAuthMapping.addDistributor">

<ellipse fill="#edad56" stroke="#edad56" stroke-width="3" cx="279.26" cy="-682" rx="67.22" ry="18" style=""/>
<text text-anchor="middle" x="279.26" y="-677.8" font-family="Times,serif" font-size="14.00" style="">addDistributor</text>
</g>
<!-- GoogleAuthMapping.addRetailer -->
<g id="node4" class="node" pointer-events="visible" data-name="GoogleAuthMapping.addRetailer">

<ellipse fill="#edad56" stroke="#edad56" stroke-width="3" cx="279.26" cy="-736" rx="55.59" ry="18" style=""/>
<text text-anchor="middle" x="279.26" y="-731.8" font-family="Times,serif" font-size="14.00" style="">addRetailer</text>
</g>
<!-- GoogleAuthMapping.registerUser -->
<g id="node5" class="node" pointer-events="visible" data-name="GoogleAuthMapping.registerUser">

<ellipse fill="#ff9797" stroke="#ff9797" stroke-width="3" cx="90.87" cy="-736" rx="58.46" ry="18" style=""/>
<text text-anchor="middle" x="90.87" y="-731.8" font-family="Times,serif" font-size="14.00" style="">registerUser</text>
</g>
<!-- GoogleAuthMapping.registerUser&#45;&gt;GoogleAuthMapping.addRMS -->
<g id="edge1" class="edge" data-name="GoogleAuthMapping.registerUser-&gt;GoogleAuthMapping.addRMS">

<path fill="none" stroke="#1bc6a6" stroke-width="2" d="M140.49,-725.29C149.8,-721.42 158.79,-716.15 165.74,-709 201,-672.71 166.27,-637.09 201.74,-601 208.04,-594.58 215.97,-589.68 224.31,-585.95" style=""/>
<polygon fill="#1bc6a6" stroke="#1bc6a6" stroke-width="2" points="225.33,-589.31 233.43,-582.48 222.84,-582.76 225.33,-589.31" style=""/>
</g>
<!-- GoogleAuthMapping.registerUser&#45;&gt;GoogleAuthMapping.addManufacturer -->
<g id="edge2" class="edge" data-name="GoogleAuthMapping.registerUser-&gt;GoogleAuthMapping.addManufacturer">

<path fill="none" stroke="#1bc6a6" stroke-width="2" d="M137.97,-724.24C147.76,-720.4 157.58,-715.42 165.74,-709 188.4,-691.16 178.97,-672.71 201.74,-655 205.23,-652.28 209.03,-649.82 212.99,-647.6" style=""/>
<polygon fill="#1bc6a6" stroke="#1bc6a6" stroke-width="2" points="214.35,-650.83 221.79,-643.28 211.27,-644.54 214.35,-650.83" style=""/>
</g>
<!-- GoogleAuthMapping.registerUser&#45;&gt;GoogleAuthMapping.addDistributor -->
<g id="edge3" class="edge" data-name="GoogleAuthMapping.registerUser-&gt;GoogleAuthMapping.addDistributor">

<path fill="none" stroke="#1bc6a6" stroke-width="2" d="M136.04,-723.2C160.67,-716.07 191.68,-707.08 218.46,-699.33" style=""/>
<polygon fill="#1bc6a6" stroke="#1bc6a6" stroke-width="2" points="219.28,-702.73 227.91,-696.59 217.33,-696.01 219.28,-702.73" style=""/>
</g>
<!-- GoogleAuthMapping.registerUser&#45;&gt;GoogleAuthMapping.addRetailer -->
<g id="edge4" class="edge" data-name="GoogleAuthMapping.registerUser-&gt;GoogleAuthMapping.addRetailer">

<path fill="none" stroke="#1bc6a6" stroke-width="2" d="M150.59,-736C169.32,-736 190.21,-736 209.58,-736" style=""/>
<polygon fill="#1bc6a6" stroke="#1bc6a6" stroke-width="2" points="209.35,-739.5 219.35,-736 209.35,-732.5 209.35,-739.5" style=""/>
</g>
<!-- GoogleAuthMapping.validateUser -->
<g id="node6" class="node" pointer-events="visible" data-name="GoogleAuthMapping.validateUser">

<ellipse fill="#ff9797" stroke="#ff9797" stroke-width="3" cx="90.87" cy="-682" rx="59.67" ry="18" style=""/>
<text text-anchor="middle" x="90.87" y="-677.8" font-family="Times,serif" font-size="14.00" style="">validateUser</text>
</g>
<!-- GoogleAuthMapping.getUserAddress -->
<g id="node7" class="node" pointer-events="visible" data-name="GoogleAuthMapping.getUserAddress">

<ellipse fill="#ff9797" stroke="#ff9797" stroke-width="3" cx="90.87" cy="-628" rx="72.94" ry="18" style=""/>
<text text-anchor="middle" x="90.87" y="-623.8" font-family="Times,serif" font-size="14.00" style="">getUserAddress</text>
</g>
<!-- GoogleAuthMapping.getUsername -->
<g id="node8" class="node" pointer-events="visible" data-name="GoogleAuthMapping.getUsername">

<ellipse fill="#ff9797" stroke="#ff9797" stroke-width="3" cx="90.87" cy="-574" rx="61.96" ry="18" style=""/>
<text text-anchor="middle" x="90.87" y="-569.8" font-family="Times,serif" font-size="14.00" style="">getUsername</text>
</g>
<!-- GoogleAuthMapping.getRole -->
<g id="node9" class="node" pointer-events="visible" data-name="GoogleAuthMapping.getRole">

<ellipse fill="#ff9797" stroke="#ff9797" stroke-width="3" cx="90.87" cy="-520" rx="41.15" ry="18" style=""/>
<text text-anchor="middle" x="90.87" y="-515.8" font-family="Times,serif" font-size="14.00" style="">getRole</text>
</g>
<!-- GoogleAuthMapping.addProduct -->
<g id="node10" class="node" pointer-events="visible" data-name="GoogleAuthMapping.addProduct">

<ellipse fill="#ff9797" stroke="#ff9797" stroke-width="3" cx="90.87" cy="-466" rx="55.04" ry="18" style=""/>
<text text-anchor="middle" x="90.87" y="-461.8" font-family="Times,serif" font-size="14.00" style="">addProduct</text>
</g>
<!-- GoogleAuthMapping.getAllProducts -->
<g id="node11" class="node" pointer-events="visible" data-name="GoogleAuthMapping.getAllProducts">

<ellipse fill="#ff9797" stroke="#ff9797" stroke-width="3" cx="90.87" cy="-412" rx="68.95" ry="18" style=""/>
<text text-anchor="middle" x="90.87" y="-407.8" font-family="Times,serif" font-size="14.00" style="">getAllProducts</text>
</g>
<!-- GoogleAuthMapping.getUserProducts -->
<g id="node12" class="node" pointer-events="visible" data-name="GoogleAuthMapping.getUserProducts">

<ellipse fill="#ff9797" stroke="#ff9797" stroke-width="3" cx="90.87" cy="-358" rx="74.74" ry="18" style=""/>
<text text-anchor="middle" x="90.87" y="-353.8" font-family="Times,serif" font-size="14.00" style="">getUserProducts</text>
</g>
<!-- GoogleAuthMapping.RMSsupply -->
<g id="node13" class="node" pointer-events="visible" data-name="GoogleAuthMapping.RMSsupply">

<ellipse fill="#ff9797" stroke="#ff9797" stroke-width="3" cx="90.87" cy="-304" rx="57.38" ry="18" style=""/>
<text text-anchor="middle" x="90.87" y="-299.8" font-family="Times,serif" font-size="14.00" style="">RMSsupply</text>
</g>
<!-- GoogleAuthMapping.findRMS -->
<g id="node14" class="node" pointer-events="visible" data-name="GoogleAuthMapping.findRMS">

<ellipse fill="#edad56" stroke="#edad56" stroke-width="3" cx="279.26" cy="-304" rx="46.98" ry="18" style=""/>
<text text-anchor="middle" x="279.26" y="-299.8" font-family="Times,serif" font-size="14.00" style="">findRMS</text>
</g>
<!-- GoogleAuthMapping.RMSsupply&#45;&gt;GoogleAuthMapping.findRMS -->
<g id="edge5" class="edge" data-name="GoogleAuthMapping.RMSsupply-&gt;GoogleAuthMapping.findRMS">

<path fill="none" stroke="#1bc6a6" stroke-width="2" d="M149.57,-304C171.27,-304 196,-304 217.94,-304" style=""/>
<polygon fill="#1bc6a6" stroke="#1bc6a6" stroke-width="2" points="217.81,-307.5 227.81,-304 217.81,-300.5 217.81,-307.5" style=""/>
</g>
<!-- GoogleAuthMapping.Manufacturing -->
<g id="node15" class="node" pointer-events="visible" data-name="GoogleAuthMapping.Manufacturing">

<ellipse fill="#ff9797" stroke="#ff9797" stroke-width="3" cx="90.87" cy="-250" rx="68.34" ry="18" style=""/>
<text text-anchor="middle" x="90.87" y="-245.8" font-family="Times,serif" font-size="14.00" style="">Manufacturing</text>
</g>
<!-- GoogleAuthMapping.findMAN -->
<g id="node16" class="node" pointer-events="visible" data-name="GoogleAuthMapping.findMAN">

<ellipse fill="#edad56" stroke="#edad56" stroke-width="3" cx="279.26" cy="-250" rx="49.25" ry="18" style=""/>
<text text-anchor="middle" x="279.26" y="-245.8" font-family="Times,serif" font-size="14.00" style="">findMAN</text>
</g>
<!-- GoogleAuthMapping.Manufacturing&#45;&gt;GoogleAuthMapping.findMAN -->
<g id="edge6" class="edge" data-name="GoogleAuthMapping.Manufacturing-&gt;GoogleAuthMapping.findMAN">

<path fill="none" stroke="#1bc6a6" stroke-width="2" d="M160.48,-250C178.6,-250 198.06,-250 215.83,-250" style=""/>
<polygon fill="#1bc6a6" stroke="#1bc6a6" stroke-width="2" points="215.71,-253.5 225.71,-250 215.71,-246.5 215.71,-253.5" style=""/>
</g>
<!-- GoogleAuthMapping.Distribute -->
<g id="node17" class="node" pointer-events="visible" data-name="GoogleAuthMapping.Distribute">

<ellipse fill="#ff9797" stroke="#ff9797" stroke-width="3" cx="90.87" cy="-196" rx="49.82" ry="18" style=""/>
<text text-anchor="middle" x="90.87" y="-191.8" font-family="Times,serif" font-size="14.00" style="">Distribute</text>
</g>
<!-- GoogleAuthMapping.findDIS -->
<g id="node18" class="node" pointer-events="visible" data-name="GoogleAuthMapping.findDIS">

<ellipse fill="#edad56" stroke="#edad56" stroke-width="3" cx="279.26" cy="-196" rx="42.31" ry="18" style=""/>
<text text-anchor="middle" x="279.26" y="-191.8" font-family="Times,serif" font-size="14.00" style="">findDIS</text>
</g>
<!-- GoogleAuthMapping.Distribute&#45;&gt;GoogleAuthMapping.findDIS -->
<g id="edge7" class="edge" data-name="GoogleAuthMapping.Distribute-&gt;GoogleAuthMapping.findDIS">

<path fill="none" stroke="#1bc6a6" stroke-width="2" d="M141.82,-196C166.7,-196 196.88,-196 222.51,-196" style=""/>
<polygon fill="#1bc6a6" stroke="#1bc6a6" stroke-width="2" points="222.43,-199.5 232.43,-196 222.43,-192.5 222.43,-199.5" style=""/>
</g>
<!-- GoogleAuthMapping.Retail -->
<g id="node19" class="node" pointer-events="visible" data-name="GoogleAuthMapping.Retail">

<ellipse fill="#ff9797" stroke="#ff9797" stroke-width="3" cx="90.87" cy="-142" rx="34.2" ry="18" style=""/>
<text text-anchor="middle" x="90.87" y="-137.8" font-family="Times,serif" font-size="14.00" style="">Retail</text>
</g>
<!-- GoogleAuthMapping.findRET -->
<g id="node20" class="node" pointer-events="visible" data-name="GoogleAuthMapping.findRET">

<ellipse fill="#edad56" stroke="#edad56" stroke-width="3" cx="279.26" cy="-115" rx="44.66" ry="18" style=""/>
<text text-anchor="middle" x="279.26" y="-110.8" font-family="Times,serif" font-size="14.00" style="">findRET</text>
</g>
<!-- GoogleAuthMapping.Retail&#45;&gt;GoogleAuthMapping.findRET -->
<g id="edge8" class="edge" data-name="GoogleAuthMapping.Retail-&gt;GoogleAuthMapping.findRET">

<path fill="none" stroke="#1bc6a6" stroke-width="2" d="M125.19,-137.17C152.34,-133.24 191.25,-127.6 223.04,-123" style=""/>
<polygon fill="#1bc6a6" stroke="#1bc6a6" stroke-width="2" points="223.34,-126.49 232.73,-121.6 222.33,-119.57 223.34,-126.49" style=""/>
</g>
<!-- GoogleAuthMapping.sold -->
<g id="node21" class="node" pointer-events="visible" data-name="GoogleAuthMapping.sold">

<ellipse fill="#ff9797" stroke="#ff9797" stroke-width="3" cx="90.87" cy="-88" rx="27.27" ry="18" style=""/>
<text text-anchor="middle" x="90.87" y="-83.8" font-family="Times,serif" font-size="14.00" style="">sold</text>
</g>
<!-- GoogleAuthMapping.sold&#45;&gt;GoogleAuthMapping.findRET -->
<g id="edge9" class="edge" data-name="GoogleAuthMapping.sold-&gt;GoogleAuthMapping.findRET">

<path fill="none" stroke="#1bc6a6" stroke-width="2" d="M118.97,-91.93C146.1,-95.86 188.62,-102.01 222.91,-106.98" style=""/>
<polygon fill="#1bc6a6" stroke="#1bc6a6" stroke-width="2" points="222.2,-110.42 232.6,-108.39 223.21,-103.49 222.2,-110.42" style=""/>
</g>
<!-- GoogleAuthMapping.showStage -->
<g id="node22" class="node" pointer-events="visible" data-name="GoogleAuthMapping.showStage">

<ellipse fill="#ff9797" stroke="#ff9797" stroke-width="3" cx="90.87" cy="-34" rx="52.76" ry="18" style=""/>
<text text-anchor="middle" x="90.87" y="-29.8" font-family="Times,serif" font-size="14.00" style="">showStage</text>
</g>
<!-- key -->
<g id="node23" class="node" pointer-events="visible" data-name="key">

<polygon fill="#edad56" stroke="none" stroke-width="3" points="155.87,-891 25.87,-891 25.87,-803 155.87,-803 155.87,-891" style=""/>
<text text-anchor="start" x="75.51" y="-872.4" font-family="Times,serif" font-size="14.00" style="">Internal Call</text>
<text text-anchor="start" x="71.62" y="-852.4" font-family="Times,serif" font-size="14.00" style="">External Call</text>
<text text-anchor="start" x="49.07" y="-832.4" font-family="Times,serif" font-size="14.00" style="">Defined Contract</text>
<text text-anchor="start" x="35.47" y="-812.4" font-family="Times,serif" font-size="14.00" style="">Undefined Contract</text>
</g>
<!-- key2 -->
<g id="node24" class="node" pointer-events="visible" data-name="key2">

<polygon fill="#edad56" stroke="none" stroke-width="3" points="306.26,-891 252.26,-891 252.26,-803 306.26,-803 306.26,-891" style=""/>
<text text-anchor="start" x="269.26" y="-872.4" font-family="Times,serif" font-size="14.00" style="">   </text>
<text text-anchor="start" x="269.26" y="-852.4" font-family="Times,serif" font-size="14.00" style="">   </text>
<polygon fill="#445773" stroke="none" points="267.26,-827 267.26,-847 292.26,-847 292.26,-827 267.26,-827" style=""/>
<text text-anchor="start" x="269.26" y="-832.4" font-family="Times,serif" font-size="14.00" style="">   </text>
<polygon fill="none" stroke="#e8726d" points="269.26,-809 269.26,-825 290.26,-825 290.26,-809 269.26,-809" style=""/>
</g>
<!-- key&#45;&gt;key2 -->
<g id="edge10" class="edge" data-name="key-&gt;key2">

<path fill="none" stroke="#1bc6a6" stroke-width="2" d="M148.87,-877C196.46,-877 211.49,-877 253.36,-877" style=""/>
<polygon fill="#1bc6a6" stroke="#1bc6a6" stroke-width="2" points="253.24,-880.5 263.24,-877 253.24,-873.5 253.24,-880.5" style=""/>
</g>
<!-- key&#45;&gt;key2 -->
<g id="edge11" class="edge" data-name="key-&gt;key2">

<path fill="none" stroke="white" stroke-width="2" d="M148.87,-857C196.46,-857 211.49,-857 253.36,-857" style=""/>
<polygon fill="white" stroke="white" stroke-width="2" points="253.24,-860.5 263.24,-857 253.24,-853.5 253.24,-860.5" style=""/>
</g>
</g>
</svg>