<?xml version="1.0" encoding="UTF-8" standalone="no"?>
<!DOCTYPE svg PUBLIC "-//W3C//DTD SVG 1.1//EN"
 "http://www.w3.org/Graphics/SVG/1.1/DTD/svg11.dtd">
<!-- Generated by graphviz version 5.0.0 (20220707.1540)
 -->
<!-- Title: UmlClassDiagram Pages: 1 -->
<svg width="2085pt" height="1231pt"
 viewBox="0.00 0.00 2085.23 1231.00" xmlns="http://www.w3.org/2000/svg" xmlns:xlink="http://www.w3.org/1999/xlink">
<g id="graph0" class="graph" transform="scale(1 1) rotate(0) translate(4 1227)">
<title>UmlClassDiagram</title>
<polygon fill="white" stroke="transparent" points="-4,4 -4,-1227 2081.23,-1227 2081.23,4 -4,4"/>
<!-- 0 -->
<g id="node1" class="node">
<title>0</title>
<polygon fill="#f2f2f2" stroke="black" points="717.38,-0.5 717.38,-746.9 1490.85,-746.9 1490.85,-0.5 717.38,-0.5"/>
<text text-anchor="middle" x="1104.12" y="-730.3" font-family="Times,serif" font-size="14.00">GoogleAuthMapping</text>
<text text-anchor="middle" x="1104.12" y="-713.5" font-family="Times,serif" font-size="14.00">contractsUmlClassDiagramoogleAuthMapping.sol</text>
<polyline fill="none" stroke="black" points="717.38,-705.3 1490.85,-705.3 "/>
<text text-anchor="start" x="725.38" y="-688.7" font-family="Times,serif" font-size="14.00">Private:</text>
<text text-anchor="start" x="725.38" y="-671.9" font-family="Times,serif" font-size="14.00"> &#160;&#160;googleIdToUser: mapping(bytes32=&gt;User)</text>
<text text-anchor="start" x="725.38" y="-655.1" font-family="Times,serif" font-size="14.00"> &#160;&#160;products: Product[]</text>
<text text-anchor="start" x="725.38" y="-638.3" font-family="Times,serif" font-size="14.00"> &#160;&#160;userProductIds: mapping(address=&gt;uint256[])</text>
<text text-anchor="start" x="725.38" y="-621.5" font-family="Times,serif" font-size="14.00">Public:</text>
<text text-anchor="start" x="725.38" y="-604.7" font-family="Times,serif" font-size="14.00"> &#160;&#160;RMS: mapping(uint256=&gt;rawMaterialSupplier)</text>
<text text-anchor="start" x="725.38" y="-587.9" font-family="Times,serif" font-size="14.00"> &#160;&#160;MAN: mapping(uint256=&gt;manufacturer)</text>
<text text-anchor="start" x="725.38" y="-571.1" font-family="Times,serif" font-size="14.00"> &#160;&#160;DIS: mapping(uint256=&gt;distributor)</text>
<text text-anchor="start" x="725.38" y="-554.3" font-family="Times,serif" font-size="14.00"> &#160;&#160;RET: mapping(uint256=&gt;retailer)</text>
<text text-anchor="start" x="725.38" y="-537.5" font-family="Times,serif" font-size="14.00"> &#160;&#160;ProductStock: mapping(uint256=&gt;Product)</text>
<text text-anchor="start" x="725.38" y="-520.7" font-family="Times,serif" font-size="14.00"> &#160;&#160;productCtr: uint256</text>
<text text-anchor="start" x="725.38" y="-503.9" font-family="Times,serif" font-size="14.00"> &#160;&#160;rmsCtr: uint256</text>
<text text-anchor="start" x="725.38" y="-487.1" font-family="Times,serif" font-size="14.00"> &#160;&#160;manCtr: uint256</text>
<text text-anchor="start" x="725.38" y="-470.3" font-family="Times,serif" font-size="14.00"> &#160;&#160;disCtr: uint256</text>
<text text-anchor="start" x="725.38" y="-453.5" font-family="Times,serif" font-size="14.00"> &#160;&#160;retCtr: uint256</text>
<polyline fill="none" stroke="black" points="717.38,-445.3 1490.85,-445.3 "/>
<text text-anchor="start" x="725.38" y="-428.7" font-family="Times,serif" font-size="14.00">Private:</text>
<text text-anchor="start" x="725.38" y="-411.9" font-family="Times,serif" font-size="14.00"> &#160;&#160;&#160;findRMS(_address: address): uint256</text>
<text text-anchor="start" x="725.38" y="-395.1" font-family="Times,serif" font-size="14.00"> &#160;&#160;&#160;findMAN(_address: address): uint256</text>
<text text-anchor="start" x="725.38" y="-378.3" font-family="Times,serif" font-size="14.00"> &#160;&#160;&#160;findDIS(_address: address): uint256</text>
<text text-anchor="start" x="725.38" y="-361.5" font-family="Times,serif" font-size="14.00"> &#160;&#160;&#160;findRET(_address: address): uint256</text>
<text text-anchor="start" x="725.38" y="-344.7" font-family="Times,serif" font-size="14.00">Public:</text>
<text text-anchor="start" x="725.38" y="-327.9" font-family="Times,serif" font-size="14.00"> &#160;&#160;&#160;&lt;&lt;event&gt;&gt; UserRegistered(googleIdHash: bytes32, ethAddress: address, email: string, username: string, location: string, role: uint8)</text>
<text text-anchor="start" x="725.38" y="-311.1" font-family="Times,serif" font-size="14.00"> &#160;&#160;&#160;&lt;&lt;event&gt;&gt; ProductAdded(productId: uint256, name: string, quantity: uint256, registeredByEmail: string)</text>
<text text-anchor="start" x="725.38" y="-294.3" font-family="Times,serif" font-size="14.00"> &#160;&#160;&#160;addRMS(_address: address, _name: string, _place: string)</text>
<text text-anchor="start" x="725.38" y="-277.5" font-family="Times,serif" font-size="14.00"> &#160;&#160;&#160;addManufacturer(_address: address, _name: string, _place: string)</text>
<text text-anchor="start" x="725.38" y="-260.7" font-family="Times,serif" font-size="14.00"> &#160;&#160;&#160;addDistributor(_address: address, _name: string, _place: string)</text>
<text text-anchor="start" x="725.38" y="-243.9" font-family="Times,serif" font-size="14.00"> &#160;&#160;&#160;addRetailer(_address: address, _name: string, _place: string)</text>
<text text-anchor="start" x="725.38" y="-227.1" font-family="Times,serif" font-size="14.00"> &#160;&#160;&#160;registerUser(googleIdHash: bytes32, email: string, ethAddress: address, username: string, location: string, role: uint8)</text>
<text text-anchor="start" x="725.38" y="-210.3" font-family="Times,serif" font-size="14.00"> &#160;&#160;&#160;validateUser(googleIdHash: bytes32): bool</text>
<text text-anchor="start" x="725.38" y="-193.5" font-family="Times,serif" font-size="14.00"> &#160;&#160;&#160;getUserAddress(googleIdHash: bytes32): address</text>
<text text-anchor="start" x="725.38" y="-176.7" font-family="Times,serif" font-size="14.00"> &#160;&#160;&#160;getUsername(googleIdHash: bytes32): string</text>
<text text-anchor="start" x="725.38" y="-159.9" font-family="Times,serif" font-size="14.00"> &#160;&#160;&#160;getRole(googleIdHash: bytes32): uint8</text>
<text text-anchor="start" x="725.38" y="-143.1" font-family="Times,serif" font-size="14.00"> &#160;&#160;&#160;addProduct(name: string, quantity: uint256, registeredByEmail: string, description: string)</text>
<text text-anchor="start" x="725.38" y="-126.3" font-family="Times,serif" font-size="14.00"> &#160;&#160;&#160;getAllProducts(): Product[]</text>
<text text-anchor="start" x="725.38" y="-109.5" font-family="Times,serif" font-size="14.00"> &#160;&#160;&#160;getUserProducts(user: address): Product[]</text>
<text text-anchor="start" x="725.38" y="-92.7" font-family="Times,serif" font-size="14.00"> &#160;&#160;&#160;RMSsupply(_productID: uint256)</text>
<text text-anchor="start" x="725.38" y="-75.9" font-family="Times,serif" font-size="14.00"> &#160;&#160;&#160;Manufacturing(_productID: uint256)</text>
<text text-anchor="start" x="725.38" y="-59.1" font-family="Times,serif" font-size="14.00"> &#160;&#160;&#160;Distribute(_productID: uint256)</text>
<text text-anchor="start" x="725.38" y="-42.3" font-family="Times,serif" font-size="14.00"> &#160;&#160;&#160;Retail(_productID: uint256)</text>
<text text-anchor="start" x="725.38" y="-25.5" font-family="Times,serif" font-size="14.00"> &#160;&#160;&#160;sold(_productID: uint256)</text>
<text text-anchor="start" x="725.38" y="-8.7" font-family="Times,serif" font-size="14.00"> &#160;&#160;&#160;showStage(_productID: uint256): string</text>
</g>
<!-- 1 -->
<g id="node2" class="node">
<title>1</title>
<polygon fill="#f2f2f2" stroke="black" points="0,-817.5 0,-984.7 300.23,-984.7 300.23,-817.5 0,-817.5"/>
<text text-anchor="middle" x="150.12" y="-968.1" font-family="Times,serif" font-size="14.00">&lt;&lt;Struct&gt;&gt;</text>
<text text-anchor="middle" x="150.12" y="-951.3" font-family="Times,serif" font-size="14.00">User</text>
<text text-anchor="middle" x="150.12" y="-934.5" font-family="Times,serif" font-size="14.00">contractsUmlClassDiagramoogleAuthMapping.sol</text>
<polyline fill="none" stroke="black" points="0,-926.3 300.23,-926.3 "/>
<text text-anchor="start" x="8" y="-909.7" font-family="Times,serif" font-size="14.00">ethAddress: address</text>
<text text-anchor="start" x="8" y="-892.9" font-family="Times,serif" font-size="14.00">email: string</text>
<text text-anchor="start" x="8" y="-876.1" font-family="Times,serif" font-size="14.00">username: string</text>
<text text-anchor="start" x="8" y="-859.3" font-family="Times,serif" font-size="14.00">location: string</text>
<text text-anchor="start" x="8" y="-842.5" font-family="Times,serif" font-size="14.00">role: uint8</text>
<text text-anchor="start" x="8" y="-825.7" font-family="Times,serif" font-size="14.00">registered: bool</text>
</g>
<!-- 0&#45;&gt;1 -->
<g id="edge12" class="edge">
<title>0&#45;&gt;1</title>
<path fill="none" stroke="black" d="M717.33,-553.83C582.65,-621.33 432.26,-701.65 300.12,-783.4 286,-792.13 271.52,-801.75 257.4,-811.59"/>
<polygon fill="black" stroke="black" points="255.29,-808.79 249.12,-817.41 259.32,-814.52 255.29,-808.79"/>
</g>
<!-- 2 -->
<g id="node3" class="node">
<title>2</title>
<polygon fill="#f2f2f2" stroke="black" points="318,-783.9 318,-1018.3 618.23,-1018.3 618.23,-783.9 318,-783.9"/>
<text text-anchor="middle" x="468.12" y="-1001.7" font-family="Times,serif" font-size="14.00">&lt;&lt;Struct&gt;&gt;</text>
<text text-anchor="middle" x="468.12" y="-984.9" font-family="Times,serif" font-size="14.00">Product</text>
<text text-anchor="middle" x="468.12" y="-968.1" font-family="Times,serif" font-size="14.00">contractsUmlClassDiagramoogleAuthMapping.sol</text>
<polyline fill="none" stroke="black" points="318,-959.9 618.23,-959.9 "/>
<text text-anchor="start" x="326" y="-943.3" font-family="Times,serif" font-size="14.00">id: uint256</text>
<text text-anchor="start" x="326" y="-926.5" font-family="Times,serif" font-size="14.00">name: string</text>
<text text-anchor="start" x="326" y="-909.7" font-family="Times,serif" font-size="14.00">quantity: uint256</text>
<text text-anchor="start" x="326" y="-892.9" font-family="Times,serif" font-size="14.00">registeredByEmail: string</text>
<text text-anchor="start" x="326" y="-876.1" font-family="Times,serif" font-size="14.00">description: string</text>
<text text-anchor="start" x="326" y="-859.3" font-family="Times,serif" font-size="14.00">RMSid: uint256</text>
<text text-anchor="start" x="326" y="-842.5" font-family="Times,serif" font-size="14.00">MANid: uint256</text>
<text text-anchor="start" x="326" y="-825.7" font-family="Times,serif" font-size="14.00">DISid: uint256</text>
<text text-anchor="start" x="326" y="-808.9" font-family="Times,serif" font-size="14.00">RETid: uint256</text>
<text text-anchor="start" x="326" y="-792.1" font-family="Times,serif" font-size="14.00">stage: STAGE</text>
</g>
<!-- 0&#45;&gt;2 -->
<g id="edge13" class="edge">
<title>0&#45;&gt;2</title>
<path fill="none" stroke="black" d="M716.96,-689.05C679.58,-720.05 643.54,-750.05 611.04,-777.23"/>
<polygon fill="black" stroke="black" points="608.71,-774.61 603.29,-783.71 613.2,-779.98 608.71,-774.61"/>
</g>
<!-- 3 -->
<g id="node4" class="node">
<title>3</title>
<polygon fill="#f2f2f2" stroke="black" points="636,-834.3 636,-967.9 936.23,-967.9 936.23,-834.3 636,-834.3"/>
<text text-anchor="middle" x="786.12" y="-951.3" font-family="Times,serif" font-size="14.00">&lt;&lt;Struct&gt;&gt;</text>
<text text-anchor="middle" x="786.12" y="-934.5" font-family="Times,serif" font-size="14.00">rawMaterialSupplier</text>
<text text-anchor="middle" x="786.12" y="-917.7" font-family="Times,serif" font-size="14.00">contractsUmlClassDiagramoogleAuthMapping.sol</text>
<polyline fill="none" stroke="black" points="636,-909.5 936.23,-909.5 "/>
<text text-anchor="start" x="644" y="-892.9" font-family="Times,serif" font-size="14.00">addr: address</text>
<text text-anchor="start" x="644" y="-876.1" font-family="Times,serif" font-size="14.00">id: uint256</text>
<text text-anchor="start" x="644" y="-859.3" font-family="Times,serif" font-size="14.00">name: string</text>
<text text-anchor="start" x="644" y="-842.5" font-family="Times,serif" font-size="14.00">place: string</text>
</g>
<!-- 0&#45;&gt;3 -->
<g id="edge8" class="edge">
<title>0&#45;&gt;3</title>
<path fill="none" stroke="black" d="M872.54,-747.07C855.42,-775.87 839.72,-802.53 826.53,-825.25"/>
<polygon fill="black" stroke="black" points="823.4,-823.68 821.41,-834.08 829.45,-827.18 823.4,-823.68"/>
</g>
<!-- 4 -->
<g id="node5" class="node">
<title>4</title>
<polygon fill="#f2f2f2" stroke="black" points="954,-834.3 954,-967.9 1254.23,-967.9 1254.23,-834.3 954,-834.3"/>
<text text-anchor="middle" x="1104.12" y="-951.3" font-family="Times,serif" font-size="14.00">&lt;&lt;Struct&gt;&gt;</text>
<text text-anchor="middle" x="1104.12" y="-934.5" font-family="Times,serif" font-size="14.00">manufacturer</text>
<text text-anchor="middle" x="1104.12" y="-917.7" font-family="Times,serif" font-size="14.00">contractsUmlClassDiagramoogleAuthMapping.sol</text>
<polyline fill="none" stroke="black" points="954,-909.5 1254.23,-909.5 "/>
<text text-anchor="start" x="962" y="-892.9" font-family="Times,serif" font-size="14.00">addr: address</text>
<text text-anchor="start" x="962" y="-876.1" font-family="Times,serif" font-size="14.00">id: uint256</text>
<text text-anchor="start" x="962" y="-859.3" font-family="Times,serif" font-size="14.00">name: string</text>
<text text-anchor="start" x="962" y="-842.5" font-family="Times,serif" font-size="14.00">place: string</text>
</g>
<!-- 0&#45;&gt;4 -->
<g id="edge9" class="edge">
<title>0&#45;&gt;4</title>
<path fill="none" stroke="black" d="M1097.92,-747.07C1098.22,-775.36 1098.65,-801.58 1099.2,-824.04"/>
<polygon fill="black" stroke="black" points="1095.7,-824.18 1099.46,-834.08 1102.7,-824 1095.7,-824.18"/>
</g>
<!-- 5 -->
<g id="node6" class="node">
<title>5</title>
<polygon fill="#f2f2f2" stroke="black" points="1272,-834.3 1272,-967.9 1572.23,-967.9 1572.23,-834.3 1272,-834.3"/>
<text text-anchor="middle" x="1422.12" y="-951.3" font-family="Times,serif" font-size="14.00">&lt;&lt;Struct&gt;&gt;</text>
<text text-anchor="middle" x="1422.12" y="-934.5" font-family="Times,serif" font-size="14.00">distributor</text>
<text text-anchor="middle" x="1422.12" y="-917.7" font-family="Times,serif" font-size="14.00">contractsUmlClassDiagramoogleAuthMapping.sol</text>
<polyline fill="none" stroke="black" points="1272,-909.5 1572.23,-909.5 "/>
<text text-anchor="start" x="1280" y="-892.9" font-family="Times,serif" font-size="14.00">addr: address</text>
<text text-anchor="start" x="1280" y="-876.1" font-family="Times,serif" font-size="14.00">id: uint256</text>
<text text-anchor="start" x="1280" y="-859.3" font-family="Times,serif" font-size="14.00">name: string</text>
<text text-anchor="start" x="1280" y="-842.5" font-family="Times,serif" font-size="14.00">place: string</text>
</g>
<!-- 0&#45;&gt;5 -->
<g id="edge10" class="edge">
<title>0&#45;&gt;5</title>
<path fill="none" stroke="black" d="M1323.3,-747.07C1341.11,-776 1357.75,-802.76 1372.11,-825.55"/>
<polygon fill="black" stroke="black" points="1369.2,-827.5 1377.5,-834.08 1375.12,-823.76 1369.2,-827.5"/>
</g>
<!-- 6 -->
<g id="node7" class="node">
<title>6</title>
<polygon fill="#f2f2f2" stroke="black" points="1590,-834.3 1590,-967.9 1890.23,-967.9 1890.23,-834.3 1590,-834.3"/>
<text text-anchor="middle" x="1740.12" y="-951.3" font-family="Times,serif" font-size="14.00">&lt;&lt;Struct&gt;&gt;</text>
<text text-anchor="middle" x="1740.12" y="-934.5" font-family="Times,serif" font-size="14.00">retailer</text>
<text text-anchor="middle" x="1740.12" y="-917.7" font-family="Times,serif" font-size="14.00">contractsUmlClassDiagramoogleAuthMapping.sol</text>
<polyline fill="none" stroke="black" points="1590,-909.5 1890.23,-909.5 "/>
<text text-anchor="start" x="1598" y="-892.9" font-family="Times,serif" font-size="14.00">addr: address</text>
<text text-anchor="start" x="1598" y="-876.1" font-family="Times,serif" font-size="14.00">id: uint256</text>
<text text-anchor="start" x="1598" y="-859.3" font-family="Times,serif" font-size="14.00">name: string</text>
<text text-anchor="start" x="1598" y="-842.5" font-family="Times,serif" font-size="14.00">place: string</text>
</g>
<!-- 0&#45;&gt;6 -->
<g id="edge11" class="edge">
<title>0&#45;&gt;6</title>
<path fill="none" stroke="black" d="M1491.28,-699.97C1549.44,-747.8 1604.36,-792.68 1647.75,-827.78"/>
<polygon fill="black" stroke="black" points="1645.73,-830.65 1655.71,-834.22 1650.13,-825.21 1645.73,-830.65"/>
</g>
<!-- 7 -->
<g id="node8" class="node">
<title>7</title>
<polygon fill="#f2f2f2" stroke="black" points="1777,-1055.3 1777,-1222.5 2077.23,-1222.5 2077.23,-1055.3 1777,-1055.3"/>
<text text-anchor="middle" x="1927.12" y="-1205.9" font-family="Times,serif" font-size="14.00">&lt;&lt;Enum&gt;&gt;</text>
<text text-anchor="middle" x="1927.12" y="-1189.1" font-family="Times,serif" font-size="14.00">STAGE</text>
<text text-anchor="middle" x="1927.12" y="-1172.3" font-family="Times,serif" font-size="14.00">contractsUmlClassDiagramoogleAuthMapping.sol</text>
<polyline fill="none" stroke="black" points="1777,-1164.1 2077.23,-1164.1 "/>
<text text-anchor="start" x="1785" y="-1147.5" font-family="Times,serif" font-size="14.00">Init: 0</text>
<text text-anchor="start" x="1785" y="-1130.7" font-family="Times,serif" font-size="14.00">RawMaterialSupply: 1</text>
<text text-anchor="start" x="1785" y="-1113.9" font-family="Times,serif" font-size="14.00">Manufacture: 2</text>
<text text-anchor="start" x="1785" y="-1097.1" font-family="Times,serif" font-size="14.00">Distribution: 3</text>
<text text-anchor="start" x="1785" y="-1080.3" font-family="Times,serif" font-size="14.00">Retail: 4</text>
<text text-anchor="start" x="1785" y="-1063.5" font-family="Times,serif" font-size="14.00">sold: 5</text>
</g>
<!-- 0&#45;&gt;7 -->
<g id="edge14" class="edge">
<title>0&#45;&gt;7</title>
<path fill="none" stroke="black" stroke-dasharray="5,2" d="M1491.01,-486.01C1640.14,-548.69 1796.91,-643.4 1890.12,-783.4 1941.28,-860.25 1942.22,-968.27 1935.95,-1044.83"/>
<polygon fill="black" stroke="black" points="1932.45,-1044.68 1935.07,-1054.95 1939.43,-1045.29 1932.45,-1044.68"/>
</g>
<!-- 1&#45;&gt;0 -->
<g id="edge2" class="edge">
<title>1&#45;&gt;0</title>
<path fill="none" stroke="black" d="M266.91,-817.41C283.83,-805.55 301.23,-793.85 318.12,-783.4 441.07,-707.34 579.81,-632.51 706.14,-568.1"/>
<polygon fill="black" stroke="black" points="706.46,-567.93 709.99,-561.65 717.15,-562.49 713.62,-568.78 706.46,-567.93"/>
</g>
<!-- 2&#45;&gt;0 -->
<g id="edge3" class="edge">
<title>2&#45;&gt;0</title>
<path fill="none" stroke="black" d="M614.65,-783.77C643.36,-760.36 674.73,-734.66 707.28,-707.92"/>
<polygon fill="black" stroke="black" points="707.68,-707.59 709.78,-700.69 716.95,-699.97 714.86,-706.87 707.68,-707.59"/>
</g>
<!-- 2&#45;&gt;7 -->
<g id="edge15" class="edge">
<title>2&#45;&gt;7</title>
<path fill="none" stroke="black" stroke-dasharray="5,2" d="M618.49,-1015.33C621.36,-1016.55 624.23,-1017.71 627.12,-1018.8 831.62,-1096.31 1466.63,-1124.64 1766.81,-1133.89"/>
<polygon fill="black" stroke="black" points="1766.81,-1137.39 1776.91,-1134.2 1767.02,-1130.4 1766.81,-1137.39"/>
</g>
<!-- 3&#45;&gt;0 -->
<g id="edge4" class="edge">
<title>3&#45;&gt;0</title>
<path fill="none" stroke="black" d="M830.73,-834.08C844.61,-812.15 860.95,-785.93 878.63,-757.3"/>
<polygon fill="black" stroke="black" points="878.63,-757.29 878.38,-750.08 884.93,-747.07 885.19,-754.28 878.63,-757.29"/>
</g>
<!-- 4&#45;&gt;0 -->
<g id="edge5" class="edge">
<title>4&#45;&gt;0</title>
<path fill="none" stroke="black" d="M1108.77,-834.08C1109.37,-812.63 1109.83,-787.08 1110.17,-759.17"/>
<polygon fill="black" stroke="black" points="1110.18,-759.07 1106.24,-753.03 1110.31,-747.07 1114.24,-753.12 1110.18,-759.07"/>
</g>
<!-- 5&#45;&gt;0 -->
<g id="edge6" class="edge">
<title>5&#45;&gt;0</title>
<path fill="none" stroke="black" d="M1386.82,-834.08C1374.2,-812.25 1358.89,-786.16 1341.99,-757.67"/>
<polygon fill="black" stroke="black" points="1341.82,-757.39 1335.32,-754.27 1335.69,-747.07 1342.2,-750.19 1341.82,-757.39"/>
</g>
<!-- 6&#45;&gt;0 -->
<g id="edge7" class="edge">
<title>6&#45;&gt;0</title>
<path fill="none" stroke="black" d="M1664.85,-834.08C1621.44,-797.37 1563.15,-748.69 1500.54,-696.74"/>
<polygon fill="black" stroke="black" points="1500.51,-696.71 1493.33,-695.96 1491.27,-689.05 1498.44,-689.8 1500.51,-696.71"/>
</g>
<!-- 7&#45;&gt;0 -->
<g id="edge1" class="edge">
<title>7&#45;&gt;0</title>
<path fill="none" stroke="black" d="M1948.98,-1054.95C1960.21,-978.04 1961.57,-863.7 1908.12,-783.4 1813.83,-641.78 1654.5,-546.5 1502.42,-483.85"/>
<polygon fill="black" stroke="black" points="1502.13,-483.73 1495.06,-485.17 1491.01,-479.2 1498.08,-477.76 1502.13,-483.73"/>
</g>
</g>
</svg>
